<?xml version="1.0" standalone="no"?>
<!DOCTYPE svg PUBLIC "-//W3C//DTD SVG 20010904//EN"
 "http://www.w3.org/TR/2001/REC-SVG-20010904/DTD/svg10.dtd">
<svg version="1.0" xmlns="http://www.w3.org/2000/svg"
 width="256.000000pt" height="256.000000pt" viewBox="0 0 256.000000 256.000000"
 preserveAspectRatio="xMidYMid meet">


<g transform="translate(0.000000,256.000000) scale(0.100000,-0.100000)"
fill="#ffffff" stroke="none">
<path d="M190 2095 l0 -255 210 0 210 0 0 -225 0 -225 130 0 130 0 0 -120 0
-120 205 0 205 0 0 -35 0 -35 -90 0 -90 0 0 -65 c0 -52 -3 -65 -15 -65 -25 0
-92 -37 -98 -55 -6 -13 -35 -15 -202 -15 l-195 0 0 -110 0 -110 -205 0 -205 0
0 -255 0 -255 415 0 415 0 0 255 0 255 -200 0 -200 0 0 100 0 100 180 0 c153
0 180 -2 180 -15 0 -13 22 -15 135 -15 113 0 135 2 135 15 0 13 26 15 175 15
l175 0 0 -100 0 -100 -205 0 -205 0 0 -255 0 -255 415 0 415 0 0 255 0 255
-200 0 -200 0 0 110 0 110 -190 0 c-175 0 -190 1 -199 19 -6 10 -31 27 -56 37
l-45 19 0 53 0 52 90 0 90 0 0 45 0 45 200 0 200 0 0 125 0 125 155 0 155 0 0
220 0 220 200 0 200 0 0 255 0 255 -415 0 -415 0 0 -255 0 -255 205 0 205 0 0
-210 0 -210 -145 0 -145 0 0 120 0 120 -415 0 -415 0 0 -125 0 -125 -120 0
-120 0 0 215 0 215 195 0 195 0 0 255 0 255 -415 0 -415 0 0 -255z m800 0 l0
-225 -385 0 -385 0 0 225 0 225 385 0 385 0 0 -225z m1390 0 l0 -225 -385 0
-385 0 0 225 0 225 385 0 385 0 0 -225z m-710 -690 l0 -225 -385 0 -385 0 0
225 0 225 385 0 385 0 0 -225z m-484 -516 c13 -12 24 -26 24 -31 0 -4 -47 -8
-105 -8 -58 0 -105 4 -105 8 0 11 40 47 60 55 31 13 101 -1 126 -24z m-206
-484 l0 -225 -385 0 -385 0 0 225 0 225 385 0 385 0 0 -225z m1000 0 l0 -225
-385 0 -385 0 0 225 0 225 385 0 385 0 0 -225z"/>
</g>
</svg>
